<?xml version="1.0" encoding="UTF-8"?>
<!DOCTYPE svg PUBLIC "-//W3C//DTD SVG 1.0//EN" "http://www.w3.org/TR/2001/REC-SVG-20010904/DTD/svg10.dtd">
<!-- Creator: CorelDRAW 2021 (64-Bit) -->
<svg xmlns="http://www.w3.org/2000/svg" xml:space="preserve" width="60mm" height="60mm" version="1.0" style="shape-rendering:geometricPrecision; text-rendering:geometricPrecision; image-rendering:optimizeQuality; fill-rule:evenodd; clip-rule:evenodd"
viewBox="0 0 60 60"
 xmlns:xlink="http://www.w3.org/1999/xlink"
 xmlns:xodm="http://www.corel.com/coreldraw/odm/2003">
 <defs>
  <style type="text/css">
   <![CDATA[
    .fil0 {fill:#15803D}
    .fil1 {fill:#C2410C}
   ]]>
  </style>
 </defs>
 <g id="Layer_x0020_1">
  <metadata id="CorelCorpID_0Corel-Layer"/>
  <path class="fil0" d="M22.6588 51.8512c0.9874,-0.0141 1.5735,-0.6769 2.6519,-0.6662l0.2469 -0.2356c-6.5415,-3.0561 -8.3408,-9.3825 -4.3653,-15.8718 0.9786,-1.5974 2.2939,-3.3337 3.4455,-4.6776 5.03,-5.8701 7.1611,-9.2564 1.734,-16.2033 -0.7759,-0.9933 -2.0059,-2.2484 -2.9983,-3.1011 -0.1698,-0.1458 -0.9487,-0.798 -1.0526,-0.9616 2.1717,0.5135 4.5926,2.4882 5.6979,3.7661 0.7152,0.8268 1.3275,1.7723 1.8457,2.8946 0.6117,1.3249 0.7039,2.2762 1.1198,3.7088 2.2123,-5.815 0.1468,-10.2751 -4.959,-12.0687 -2.0854,-0.7325 -6.1552,-2.4881 -6.2071,-5.0349 -0.8639,1.4635 -1.4427,5.9351 -1.2788,7.9411 0.2529,3.0973 1.1616,4.9583 2.8423,6.4891 0.8019,0.7304 1.7182,1.2397 2.9948,1.6642 1.3165,0.4378 2.5631,0.4525 3.0919,1.5624 1.1905,2.4986 -3.5322,7.0172 -5.0252,8.6718 -3.9198,4.3439 -6.8567,11.2251 -4.2216,17.1591 0.8517,1.918 2.8065,3.9999 4.4372,4.9636z"/>
  <path class="fil1" d="M25.3107 51.185c-1.0784,-0.0107 -1.6645,0.6521 -2.6519,0.6662 0.0352,0.5359 -0.2507,1.3776 -0.2547,2.1301 -0.003,0.5623 0.0844,1.5458 0.3317,1.9948 0.5423,-0.4972 0.6055,-1.0694 1.9212,-1.6798 2.9233,-1.356 5.3492,0.3372 9.9203,-1.0929 2.697,-0.8438 4.9207,-2.5638 6.5377,-4.6335 0.5751,-0.736 1.0217,-1.5217 1.5191,-2.2067 0.6317,0.1754 1.3229,0.8634 1.6508,1.3933 0.1786,0.2888 0.35,0.6613 0.4761,1.0445 0.1984,0.6028 0.1447,0.9973 0.3251,1.2996 2.0872,-6.2342 -1.4986,-8.6707 -2.225,-10.2314 -0.1946,-0.4182 -0.348,-0.9286 -0.5017,-1.445 -1.1047,-3.7109 -4.2265,-6.4267 -7.836,-7.8329 -1.468,-0.5719 -2.0349,-0.3415 -2.5752,0.8572 -0.4017,0.8911 -0.7481,1.8795 -0.9646,2.9228 -0.5176,2.4945 0.0629,4.5736 0.7726,6.6956 0.5696,1.7032 1.6158,4.6515 0.1311,6.1506 -1.6922,1.7086 -5.2732,0.5584 -6.5876,0.6095 2.8549,2.2178 8.1439,1.8972 8.4336,-2.1445 0.1037,-1.4466 -0.4989,-2.7658 -0.4659,-3.9399 1.045,-0.1079 3.3453,-0.6761 3.9548,-1.2152 -1.3787,0.1488 -2.1747,0.4502 -3.4132,-0.2436 -0.8101,-0.4538 -1.3905,-1.2213 -1.6916,-2.2865 -0.5566,-1.9694 -0.1468,-5.3694 1.2011,-6.2831 1.2505,-0.8476 6.7838,3.0055 8.2545,7.3211 1.7527,5.1432 -2.6867,13.0171 -10.2037,12.8896 -3.1489,-0.0534 -3.7702,-1.2131 -6.766,0.4325 0.1705,-0.6454 0.4685,-0.7498 0.7074,-1.1724z"/>
  <path class="fil0" d="M30.9169 23.3597c2.1848,-0.1758 2.7779,-0.5628 5.1721,0.4196 0.4521,0.1855 0.6897,0.325 1.1804,0.5126 0.4103,0.1568 0.9836,0.261 1.2937,0.4618 -2.8278,0.1327 -6.163,-1.4426 -8.3528,0.1286 -0.52,0.3731 -1.2636,1.1403 -1.4711,1.7851 1.5693,-0.1647 1.9612,-0.6542 4.1168,0.3423 1.2674,0.5859 2.4946,0.9833 4.1038,0.9843 1.5164,0.0011 2.8546,-0.5492 3.7964,-1.1992 0.8222,-0.5674 2.1629,-1.8479 2.4873,-2.6416 -3.5392,-0.0211 -3.6402,-1.5372 -6.085,-2.5471 -1.1798,-0.4873 -2.4203,-0.4897 -3.602,-0.0709 -0.9015,0.3196 -2.3045,1.1835 -2.6396,1.8245z"/>
  <path class="fil0" d="M22.0585 29.1494c1.1182,-1.7934 -0.5527,-4.0107 -1.3313,-4.9091 -0.7477,-0.8629 -1.8418,-1.7714 -2.8079,-2.4445 -0.1887,-0.1316 -0.3152,-0.2102 -0.5034,-0.3398 -0.0794,-0.0548 -0.1881,-0.1294 -0.248,-0.1742 -0.2234,-0.167 -0.1262,-0.0569 -0.2758,-0.2521 1.197,0.2209 2.7367,1.083 3.5984,1.6733 1.3337,0.9136 1.6577,1.4372 2.4794,2.7165 0.3539,-2.6901 -1.2016,-4.1821 -2.8945,-5.0118 -1.4484,-0.7097 -3.0673,-0.9685 -4.3102,-1.622 -0.6222,-0.3271 -0.6806,-0.5426 -1.0727,-0.9601 -0.4854,0.6417 -0.6393,3.2386 -0.3793,4.275 0.9864,3.9306 5.8329,4.0999 7.3057,6.2422 0.1721,0.2503 0.2781,0.6528 0.4396,0.8066z"/>
  <path class="fil1" d="M38.4454 40.2382c0.2817,2.1744 0.3782,3.1988 -0.5521,5.021 -1.1395,2.232 -2.2047,2.9236 -2.5585,3.485 1.2304,-0.3835 3.1559,-2.2741 3.8719,-3.5226 0.4414,-0.7696 0.7987,-1.6337 0.975,-2.6671 0.1468,-0.8604 0.2574,-2.6873 -0.1739,-3.3908 -0.3532,0.326 -0.5889,0.8989 -1.5624,1.0745z"/>
  <path class="fil1" d="M35.2166 34.5224c-1.7035,0.8794 -0.3252,3.1181 1.1966,2.3162 1.4139,-0.7451 0.3928,-3.1368 -1.1966,-2.3162z"/>
 </g>
</svg>
